<svg width="458" height="512" viewBox="0 0 458 512" fill="none" xmlns="http://www.w3.org/2000/svg">
<path d="M123.639 202.617L29.3342 236.997L0 156.271L42.8663 140.644L123.639 202.617ZM243.665 158.861L175.078 183.864L94.3057 121.892L162.891 96.8883L243.665 158.861ZM282.917 53.1321L363.69 115.105L295.105 140.108L214.331 78.1358L282.917 53.1321ZM457.995 80.7251L415.129 96.3523L334.356 34.3795L428.661 4.20175e-05L457.995 80.7251Z" fill="#000000"/>
<path d="M458 448C458 483.346 429.346 512 394 512H93.1611C57.8149 512 29.1612 483.346 29.1611 448V237.101H458V448ZM244.467 305C178.512 305 125.041 374.947 125 375C125.041 375.053 178.512 445 244.467 445C310.446 445 363.934 375 363.934 375C363.934 375 310.446 305 244.467 305ZM244.467 328.333C270.24 328.333 291.134 349.227 291.134 375C291.134 400.773 270.24 421.667 244.467 421.667C218.693 421.667 197.8 400.773 197.8 375C197.8 349.227 218.693 328.333 244.467 328.333ZM244.467 351.667C231.58 351.667 221.134 362.114 221.134 375C221.134 387.886 231.58 398.333 244.467 398.333C257.353 398.333 267.801 387.887 267.801 375C267.801 362.113 257.353 351.667 244.467 351.667Z" fill="#000000"/>
</svg>
